Coordinates
version=1
nRows=12
nColumns=24
inDegrees=yes

Units are S.I. units (second, meters, Newtons, ...)
Angles are in degrees.

endheader
time	pelvis_tilt	pelvis_list	pelvis_rotation	pelvis_tx	pelvis_ty	pelvis_tz	hip_flexion_r	hip_adduction_r	hip_rotation_r	knee_angle_r	ankle_angle_r	subtalar_angle_r	mtp_angle_r	hip_flexion_l	hip_adduction_l	hip_rotation_l	knee_angle_l	ankle_angle_l	subtalar_angle_l	mtp_angle_l	lumbar_extension	lumbar_bending	lumbar_rotation
      0.50800000	     -3.32237029	      2.10190911	      3.60043302	     -0.75849519	      1.01940862	      0.29193892	     24.78600094	      0.03201141	     -6.83994057	      0.40196651	      5.23601152	      1.01329242	      9.89281352	     -5.98000708	      7.27437136	      4.73230137	    -15.88109918	     12.00859508	     -5.83888140	     -3.72059077	     -4.86987941	     -4.84286651	     -4.00391398
      0.51216667	     -3.25236472	      2.00606427	      3.67906601	     -0.75280190	      1.01922328	      0.29194777	     24.68941306	      0.19997575	     -6.71417659	     -0.01563362	      5.35101262	      0.77214955	      9.92719273	     -6.04746978	      7.12614504	      4.63657913	    -16.56546371	     12.03858180	     -5.56142285	     -3.67959672	     -4.91175152	     -4.73950186	     -4.07774292
      0.51633333	     -3.22751472	      1.89723633	      3.76568341	     -0.74705706	      1.01898625	      0.29193111	     24.63701263	      0.37267626	     -6.55637562	     -0.47498730	      5.45513341	      0.48368646	      9.97265101	     -6.05039126	      6.97354041	      4.59802483	    -17.28383906	     12.02051072	     -5.35865083	     -3.62211517	     -4.88453004	     -4.60800590	     -4.13144931
      0.52050000	     -3.15367415	      1.78188925	      3.85428208	     -0.74128706	      1.01885148	      0.29191727	     24.51992594	      0.55496082	     -6.37815862	     -0.94338060	      5.46733229	      0.09116306	     10.03877739	     -6.07935723	      6.80100453	      4.48721467	    -18.04940342	     11.98557388	     -5.08184692	     -3.52618579	     -4.91608644	     -4.46448560	     -4.20635917
      0.52466667	     -3.07615202	      1.65991976	      3.93922328	     -0.73549138	      1.01873213	      0.29192127	     24.39451000	      0.74679789	     -6.17593858	     -1.42400702	      5.35126156	     -0.41551015	     10.14685999	     -6.08575182	      6.61394886	      4.33058255	    -18.85966670	     11.94715470	     -4.76516748	     -3.35198032	     -4.94551929	     -4.33538742	     -4.27778514
      0.52883333	     -2.97294090	      1.55094404	      4.01689279	     -0.72965656	      1.01868110	      0.29192937	     24.22326197	      0.93051054	     -5.90701740	     -1.89241676	      5.20115934	     -0.99662989	     11.33612268	     -6.12205859	      6.44544797	      4.22265157	    -19.65472311	     11.73388350	     -4.58697560	     -1.36494737	     -4.99638424	     -4.20931169	     -4.20718656
      0.53300000	     -2.89885640	      1.41063566	      4.12658597	     -0.72377822	      1.01861031	      0.29189465	     24.07795744	      1.12873628	     -5.70939462	     -2.37290112	      5.02862561	     -1.51347364	     11.37063066	     -6.08625227	      6.23276744	      4.08285499	    -20.53656327	     11.62492958	     -4.29710481	     -1.28236398	     -5.01988543	     -4.03309078	     -4.43053418
      0.53716667	     -2.78212365	      1.28496677	      4.21337136	     -0.71787613	      1.01861626	      0.29191590	     23.86715273	      1.33027035	     -5.41100920	     -2.81849015	      4.76860938	     -2.17867210	     11.42853053	     -6.08589215	      6.03004219	      3.91682836	    -21.42346712	     11.42927341	     -4.02211478	     -1.13664085	     -5.08499906	     -3.88176928	     -4.48004902
      0.54133333	     -2.69197251	      1.13846171	      4.31126723	     -0.71190249	      1.01862381	      0.29191862	     23.66599197	      1.54563596	     -5.12447338	     -3.23925416	      4.47973343	     -2.79414887	     11.49105975	     -6.04085328	      5.80158032	      3.75137775	    -22.33402806	     11.13247498	     -3.77431304	     -0.97022524	     -5.09782107	     -3.69214379	     -4.54933181
      0.54550000	     -2.54403180	      1.01460187	      4.40539939	     -0.70595633	      1.01872933	      0.29196490	     23.39606811	      1.74910890	     -4.80043980	     -3.63934587	      4.05472258	     -3.60148770	     11.59198894	     -6.03224977	      5.58195250	      3.54351711	    -23.28562959	     10.88561672	     -3.48067776	     -0.67383188	     -5.20641012	     -3.55456095	     -4.61954173
      0.54966667	     -2.44701920	      0.88758163	      4.49790000	     -0.69995971	      1.01877218	      0.29202940	     23.17135737	      1.95258708	     -4.46426681	     -4.02490623	      3.61523697	     -4.36060446	     11.71544044	     -5.94613382	      5.35448223	      3.30966585	    -24.27025624	     10.51995470	     -3.20284117	     -0.29278215	     -5.23006737	     -3.40795979	     -4.67709955
      0.55383333	     -2.33008262	      0.75846460	      4.59605521	     -0.69392498	      1.01889290	      0.29210020	     22.90730120	      2.15796453	     -4.13560011	     -4.37528105	      3.12295754	     -5.11853346	     11.86094006	     -5.86720578	      5.11545692	      3.07697010	    -25.26855925	     10.08426535	     -2.94025670	      0.18331555	     -5.27708639	     -3.25398440	     -4.74211799
